<?xml version="1.0" encoding="iso-8859-1"?>
<!-- Generator: Adobe Illustrator 21.1.0, SVG Export Plug-In . SVG Version: 6.00 Build 0)  -->
<svg fill="#fff" version="1.1" id="Layer_1" xmlns="http://www.w3.org/2000/svg" xmlns:xlink="http://www.w3.org/1999/xlink" x="0px" y="0px"
	 viewBox="0 0 100.75 100.75" style="enable-background:new 0 0 100.75 100.75;" xml:space="preserve">
<path d="M93.328,70.679c-0.189-5.377-1.865-11.855-4.717-18.24c-2.852-6.391-6.557-11.965-10.433-15.695
	c-4.168-4.012-8.155-5.481-11.241-4.151c-0.025,0.01-0.051,0.014-0.076,0.025l-3.62,1.617v-8.492c0-0.012,0.002-0.024,0.002-0.036
	c0-6.717-11.59-11.782-26.96-11.782c-15.338,0-26.91,5.045-26.958,11.741c0,0.014-0.004,0.027-0.004,0.042v15.18
	c0,0.08,0.011,0.158,0.024,0.234c-0.013,0.077-0.024,0.154-0.024,0.234c0,0.137,0.012,0.271,0.022,0.406
	c-0.011,0.072-0.022,0.143-0.022,0.218v15.18c0,0.081,0.011,0.159,0.024,0.236c-0.013,0.077-0.024,0.155-0.024,0.236
	c0,0.171,0.013,0.34,0.027,0.508c-0.017,0.088-0.027,0.179-0.027,0.272v15.18c0,0.08,0.011,0.158,0.024,0.234
	c-0.013,0.077-0.024,0.154-0.024,0.234c0,6.716,11.592,11.78,26.964,11.78c9.765,0,18.664-2.228,23.348-5.75
	c4.192,5.442,8.702,8.65,12.479,8.65c0.861,0,1.686-0.166,2.458-0.511l14.235-6.359c0.014-0.006,0.029-0.01,0.043-0.016
	C91.943,80.473,93.534,76.504,93.328,70.679z M53.006,38.807l-0.432,0.19c-2.973,1.329-4.475,4.993-4.525,10.012
	c-3.59,0.785-7.614,1.218-11.763,1.218c-14.178,0-24.058-4.675-24.058-8.872c0-0.08-0.011-0.158-0.024-0.234
	c0.013-0.077,0.024-0.154,0.024-0.234v-9.693c4.368,3.803,13.28,6.295,24.056,6.295c10.773,0,19.682-2.49,24.052-6.292v4.336
	L53.006,38.807z M12.204,57.396c0.013-0.077,0.024-0.155,0.024-0.236V46.842c4.37,3.801,13.282,6.292,24.058,6.292
	c4.158,0,8.229-0.399,11.89-1.157c0.335,3.691,1.324,7.91,2.971,12.368c-4.408,1.427-9.395,2.158-14.861,2.158
	c-14.178,0-24.058-4.675-24.058-8.87C12.228,57.551,12.217,57.473,12.204,57.396z M36.284,16.831
	c14.163,0,24.035,4.669,24.053,8.865c0,0.004-0.001,0.007-0.001,0.011v0.027c-0.042,4.191-9.907,8.849-24.052,8.849
	c-14.176,0-24.054-4.678-24.054-8.876S22.108,16.831,36.284,16.831z M36.286,82.935c-14.178,0-24.058-4.677-24.058-8.874
	c0-0.08-0.011-0.158-0.024-0.234c0.013-0.077,0.024-0.154,0.024-0.234V63.118c4.37,3.801,13.282,6.291,24.058,6.291
	c5.842,0,11.188-0.799,15.929-2.358c0.191,0.455,0.388,0.912,0.593,1.37c1.554,3.478,3.301,6.603,5.138,9.316
	C53.85,80.874,45.386,82.935,36.286,82.935z M73.783,85.394l-0.411,0.189c-3.839,1.704-12.13-5.408-17.911-18.348
	c-5.775-12.944-5.531-23.873-1.707-25.582l9.301-4.153c-0.526,1.737-0.761,3.85-0.674,6.295c0.189,5.376,1.865,11.856,4.718,18.247
	c2.852,6.388,6.557,11.959,10.433,15.689c1.767,1.699,3.497,2.925,5.144,3.693L73.783,85.394z M87.669,79.198
	c-0.002,0.001-0.005,0.001-0.007,0.002l-0.01,0.004c-1.914,0.846-4.87-0.453-8.105-3.567c-3.613-3.477-7.092-8.726-9.794-14.78
	c-2.704-6.057-4.291-12.152-4.468-17.164c-0.158-4.498,0.85-7.566,2.766-8.42c0.387-0.172,0.814-0.257,1.278-0.257
	c1.84,0,4.246,1.331,6.834,3.821c3.613,3.477,7.091,8.728,9.794,14.786c2.704,6.052,4.29,12.146,4.467,17.158
	C90.583,75.273,89.578,78.34,87.669,79.198z"/>
</svg>
